<svg xmlns="http://www.w3.org/2000/svg" viewBox="0 0 1045.8 724.9">
  <defs>
    <style>
      .cls-1 {
        fill: #191919;
      }

      .cls-2 {
        fill: #015568;
      }

      .cls-3 {
        fill: #00aced;
      }

      .cls-4 {
        fill: #0b0b0b;
      }

      .cls-5 {
        fill: #333;
      }

      .cls-6 {
        fill: #0a0a0a;
      }

      .cls-7 {
        fill: #1b1b1c;
      }

      .cls-8 {
        fill: #252526;
      }

      .cls-9 {
        fill: #e5028a;
      }

      .cls-10 {
        fill: #e6028b;
      }

      .cls-11 {
        fill: #02a9ea;
      }

      .cls-12 {
        fill: #0998d6;
      }

      .cls-13 {
        fill: #0798d5;
      }

      .cls-14 {
        fill: #0398d1;
      }

      .cls-15 {
        fill: #91247f;
      }

      .cls-16 {
        fill: #9b288f;
      }

      .cls-17 {
        fill: #2687cf;
      }

      .cls-18 {
        fill: #1b88cb;
      }

      .cls-19 {
        fill: #952684;
      }

      .cls-20 {
        fill: #e20286;
      }

      .cls-21 {
        fill: #c61088;
      }

      .cls-22 {
        fill: #b51988;
      }

      .cls-23 {
        fill: #e3058d;
      }

      .cls-24 {
        fill: #fff;
      }

      .cls-25 {
        fill: #ec1b23;
      }

      .cls-26 {
        fill: #0618bb;
      }

      .cls-27 {
        fill: #243bc3;
      }

      .cls-28 {
        fill: #0f6b37;
      }

      .cls-29 {
        fill: #0ea04a;
      }

      .cls-30 {
        fill: #cd9506;
      }

      .cls-31 {
        fill: #fad232;
      }

      .cls-32 {
        fill: #be0413;
      }

      .cls-33 {
        fill: #ea1b23;
      }
    </style>
  </defs>
  <title>background</title>
  <g id="background">
    <g id="background_layers">
      <path class="cls-1" d="M1085.4,725H41.9c-1.8-1.8-1.1-3.7-.6-5.6q15.2-59.2,30.2-118.5a38.7,38.7,0,0,0,1.4-11.2c-.6-21.6,1-43.3,1.4-64.9.5-25.7,1.4-51.4,2.2-77.1s1.4-52.2,2.3-78.4,1.4-51.1,2.2-76.6,1.3-52.6,2.4-78.9c.8-18.9.3-37.8,2-56.7s-2.5-36.5-7.5-54.5C69.2,71.3,61.2,39.9,53,8.6a17.4,17.4,0,0,1-.5-2.2C51.4,1.2,52,.6,58.5.6H82.2c3.6-.4,4.3,2,5.3,3.8C93.7,16,99.7,27.7,105.7,39.3c15,28.8,30.3,57.6,45.2,86.4,1.3,2.5,2.8,5,3.3,7.7a65.4,65.4,0,0,1,.2,7.7V589.5c0,2.8.3,5.7-.5,8.5-9.2,14.3-18.1,28.7-27.1,43.1-16.1,25.7-32.1,51.5-48.7,76.9a20.6,20.6,0,0,0-2.3,4.1c1.4,1.1,3,.6,4.4.6h963.1c9.2,0,9.2,0,4.7-6.4-10.2-14.3-18.8-29.2-28.2-43.8-15.9-24.7-32-49.4-47.4-74.4a21.2,21.2,0,0,1-.7-7.1V139.4a58.2,58.2,0,0,1,.2-5.9c3.9-10,9.7-19.5,14.8-29.2,17.5-33.2,35.2-66.3,52.7-99.5,1.1-2,1.7-4.5,5.5-4.2h23.2c7.4,0,8,.5,6.6,6.6-2.1,8.7-4.5,17.3-6.8,26-7.9,29.3-15.4,58.6-23.3,87.9a84.6,84.6,0,0,0-2.7,20.1c-.4,21.2,1,42.4,1.4,63.6.5,25.4,1.4,50.8,2.2,76.2s1.4,52.8,2.4,79.3c.5,12.5.2,24.9.9,37.4,1.4,26.3,1.6,52.6,2.4,78.9s1.4,50.8,2.3,76.1c.5,13.6.3,27.1,1,40.6.5,8.9,3.8,17.5,6,26.2,8.6,33.4,17,66.9,25.6,100.3C1086.5,721.6,1087,723.4,1085.4,725Z" transform="translate(-40.7 -0.1)"/>
      <path class="cls-2" d="M83.7.9a1.1,1.1,0,0,0,0-.8h959.9c0,.3-.1.6-.1.9-6.8,10.6-12,21.9-17.9,32.9-16.2,30.3-32.2,60.7-48.3,91.1-1.3,2.3-2.6,4.6-3.8,7s-4.9,1.4-7.5,1.3c-6.8-.4-13.8,1.2-20.4-1.1-2.1-2.3-.2-4.4.7-6.4C957.9,99.4,970,73.2,982,46.9c3.2-7.2,6.5-14.4,9.8-21.6,1.9-4.1,1.3-4.7-4.2-4.8H144.9c-12.2,0-11.6-.3-7.7,8.6,13.8,32,28,63.8,41.5,95.9,1,2.3,2.9,4.7,1,7.3-9,1.7-18,2.1-27-.2L125.5,80.2,84.4,1.7C84.3,1.3,83.9,1.2,83.7.9Z" transform="translate(-40.7 -0.1)"/>
      <path class="cls-2" d="M974.9,598.6c1.6.8,2.1,2.2,2.8,3.3,14.7,23.1,29.3,46.2,44,69.2l31.3,48.5,2.5,4.3H74.7c-.9-1.4.6-2.4,1.3-3.5q36.8-58.5,73.6-116.8c1.1-1.7,2.6-3.3,3.9-5,8.4-.3,16.8-1.3,25,.7,1.7,2.2,0,4.1-1,6C168,622,157.8,638.4,148,655s-19.2,32.7-29.3,48.8c-3.2,5.2-2.8,5.5,4.3,5.5h878.9c6-.1,6.2-.5,3.6-4.9-19.2-32.8-38.2-65.8-57.6-98.5-1.1-2-4.1-4.5-2.7-6.8s7.2-.9,10.1-.8C961.8,598.4,968.4,597.7,974.9,598.6Z" transform="translate(-40.7 -0.1)"/>
      <path class="cls-3" d="M973.8,598.5c-3,2.1-6.5.9-9.7,1-6.2.1-12.4,0-18.6-.1l-.8-.6c-1.5-2.1-1.2-4.4-1.2-6.6v-453c0-2.2-.3-4.5,1.2-6.6l.8-.6h28c0,1.9.1,3.9.1,5.8V592.7C973.6,594.6,973.7,596.6,973.8,598.5Z" transform="translate(-40.7 -0.1)"/>
      <path class="cls-3" d="M177.5,599.6h-20c-1.8,0-3.8.6-5.1-1s.2-3.9.2-5.8v-455c0-1.9.1-3.9.1-5.8l27.1-.3a2,2,0,0,1,1.9.8c1.2,2.1.9,4.4.9,6.7.1,44.9,1,89.9-.2,134.8-1.7,65.8.5,131.7-1.1,197.5-1.1,40.6-.3,81.1-.9,121.7,0,2,.1,3.9-1,5.8A1.8,1.8,0,0,1,177.5,599.6Z" transform="translate(-40.7 -0.1)"/>
      <path class="cls-4" d="M180.7,131.9l-.9-.2-46-105.9c-3-6.8-3.1-6.8,5.9-6.8H987.5a19.3,19.3,0,0,0,3.4,0c4.6-.5,5.4.7,3.8,4.2Q975.5,65.1,956.5,107c-3.8,8.3-7.4,16.6-11,25h-.2c-1.6,1.2-3.7,1.4-5.8,1.4H192.7C188.7,133.3,184.4,134.1,180.7,131.9Z" transform="translate(-40.7 -0.1)"/>
      <polygon class="cls-5" points="938.5 697 121.3 702 155.3 606.3 889.4 606.3 938.5 697"/>
      <path class="cls-6" d="M945.3,599.6h.2c6.4,11.4,12.8,22.7,19.4,34l43.8,74.7c.3.6.4,1.1.8,2.1H112L133.7,674l42.9-72.1a9.2,9.2,0,0,0,.9-2.3l.8-.2c2.1-1.2,4.5-1.3,7-1.3l760,1.5c1.7-.1,4.2,12.6-10.3,12.4-6.4,0-708.3.7-714.3-1.3-13.1,21.5-29.2,49.4-42.8,70.7a40.9,40.9,0,0,0-2.5,4.6c-2.7,5-2.6,5.1,4.4,5.1H934.7c12.3,0,12.2,0,8.1-9l-29-64.1c-3.3-7.1-3.2-7.1-13-7.1" transform="translate(-40.7 -0.1)"/>
      <path class="cls-1" d="M178.3,599.6c.1-24.3.3-48.7.4-73.1q.3-45.7.5-91.6c.2-50.6.2-101.2.7-151.7s.9-100.9.8-151.3H945.3V599.7" transform="translate(-40.7 -0.1)"/>
      <path class="cls-7" d="M460.9,80.4c-7.7,10.3-20.3,15.2-33.7,19.1s-29.2,5.8-44.3,7.3a279.7,279.7,0,0,1-39.9.5c-25.5-1.1-50.7-4.2-72.5-16-6.5-3.4-12.4-7.5-13.1-14.8s5.5-12.2,11.4-16.6c3.7-2.8,8.8-4.4,13.3-6.6a13.6,13.6,0,0,0,4.9-1.2,30.4,30.4,0,0,0,6-2.1,9.7,9.7,0,0,1,4-1.5l5.8-.8,6.6-1.3a20.3,20.3,0,0,0,4.9-1.7,7,7,0,0,1,2.5-.1,104.1,104.1,0,0,0,13.7-1.2c30.5-2.7,60.7-1.4,90.3,5.2,11.3,2.6,22.1,6.1,31.2,12.1,4.8,3.1,8.2,6.9,9.8,11.8C462.7,75.4,461,77.8,460.9,80.4Z" transform="translate(-40.7 -0.1)"/>
      <path class="cls-8" d="M870.8,80.3c-6.5,8.9-16.9,13.7-28.4,17.4-28.3,9.1-57.9,10.7-87.9,9.7-19.2-.7-38.3-3.1-56.5-8.8-9.6-3-18.9-6.7-25.9-13.1-5.4-4.9-6.7-12.6-2-17.9,6.3-7.3,15-12.4,25.6-15.2,2.2-1.1,4.9-1.2,7-2.5a7.4,7.4,0,0,1,4.1-1.4,56.2,56.2,0,0,0,5.7-.9c2.1-.6,4.3-.7,6.4-1.1s3.3-.5,4.6-1.4a2.4,2.4,0,0,1,1.4-.5,5.9,5.9,0,0,1,2.3.1,119.2,119.2,0,0,0,13.4-1.3,278.2,278.2,0,0,1,39.8-1.1c23,1.1,45.8,3.6,67.2,11.3a62.2,62.2,0,0,1,15.6,8C869.9,66.6,874.2,72.5,870.8,80.3Z" transform="translate(-40.7 -0.1)"/>
      <path class="cls-9" d="M460.9,80.4c-.3-.2-.8-.4-.8-.6,2.6-10.6-5.2-16.6-15.1-21.4-15.9-7.9-33.8-11-52.1-13.2-20.9-2.5-41.9-2-62.8-.8-1.9.3-3.9,1.3-4.9-1,5.8-1.9,12.1-1.2,18.1-2.4,27.9-1.2,55.5-.1,82.4,6.5,10.3,2.5,20.1,5.9,28.5,11.4s12.1,10.8,9,18.9C462.4,78.7,461.6,79.5,460.9,80.4Z" transform="translate(-40.7 -0.1)"/>
      <path class="cls-10" d="M870.8,80.3c-.3-.3-.9-.7-.8-1,2.4-8.1-2.7-13.6-10-18.1-12.8-8-27.9-11.5-43.4-14.1-25.3-4.4-51-4.4-76.7-2.7-1.8.3-3.8,1.4-4.8-1,5.8-1.8,12.2-1.3,18.1-2.4,27.9-1.2,55.5,0,82.4,6.6,10.1,2.4,19.8,5.6,28.1,11.1s12.4,10.8,9.4,19.1Z" transform="translate(-40.7 -0.1)"/>
      <path class="cls-11" d="M873.1,77.8c1-11.6-7.8-17.9-19.2-22.8-18-7.8-37.6-10.7-57.6-12.5-14.2-1.3-28.5-.8-42.7-.8-2.4.1-5,1.5-6.9-.8,33.4-2.6,66.4-1.3,98.3,8.1,9.2,2.7,18,6.3,24.6,12.3S877.4,71.6,873.1,77.8Z" transform="translate(-40.7 -0.1)"/>
      <path class="cls-11" d="M463.2,77.8c1-11.4-7.6-17.7-18.7-22.6-17.9-7.9-37.6-10.8-57.6-12.7-14.4-1.3-28.8-.8-43.2-.8-2.4,0-5,1.5-7-.8,33.5-2.6,66.5-1.3,98.4,8.1,9.2,2.7,18,6.3,24.5,12.3S467.5,71.6,463.2,77.8Z" transform="translate(-40.7 -0.1)"/>
      <path class="cls-12" d="M336.7,40.9c2.1,1.4,4.7.3,7,.8l-18.3,1.9c-1.1,1.4-2.8,1.2-4.6,1.1a2.6,2.6,0,0,1-1.6-1.5A114.9,114.9,0,0,1,336.7,40.9Z" transform="translate(-40.7 -0.1)"/>
      <path class="cls-12" d="M746.7,40.9c2.1,1.4,4.6.3,6.9.8l-18.3,1.9c-1.2,1.3-2.8,1.4-4.6.9a1.1,1.1,0,0,1-.2-1.6l.3-.2Z" transform="translate(-40.7 -0.1)"/>
      <path class="cls-13" d="M319.2,43.2l1.6,1c-1.2,1.2-2.9,1.4-4.7,1.2H314c-1.5.9-3.5.9-5.2,1.4a5.9,5.9,0,0,1-2.3.1c-.8-.3-1.5-.6-1.4-1.4C309.7,44.5,314.3,43.2,319.2,43.2Z" transform="translate(-40.7 -0.1)"/>
      <path class="cls-14" d="M730.8,42.7v1.4c-1.3,1.3-3,1.4-4.8,1.3l-2-.3a1.4,1.4,0,0,1-1.5-.9A23.9,23.9,0,0,1,730.8,42.7Z" transform="translate(-40.7 -0.1)"/>
      <path class="cls-15" d="M294.1,50.6a19.3,19.3,0,0,1-7.1,2c-.5-.4-.6-.8-.2-1.3l5.9-2.5C293.6,49.2,294.3,49.7,294.1,50.6Z" transform="translate(-40.7 -0.1)"/>
      <path class="cls-16" d="M704,50.6c-2.6,1-5.3,2-8.3,1.8,1.1-2.6,5.1-1.7,6.9-3.5C703.5,49.2,704.2,49.6,704,50.6Z" transform="translate(-40.7 -0.1)"/>
      <path class="cls-13" d="M722.5,44.2l1.5.9v.3c-1.5.9-3.4.9-5.1,1.4a6.5,6.5,0,0,1-2.4.1c-.8-.3-1.4-.6-1.4-1.4Z" transform="translate(-40.7 -0.1)"/>
      <path class="cls-17" d="M294.1,50.6l-1.4-1.8,5.9-1.6c.3,1.1.3,2-1.6,1.8Z" transform="translate(-40.7 -0.1)"/>
      <path class="cls-17" d="M704,50.6c-.5-.6-.9-1.2-1.4-1.7l6-1.7c.3,1.1.2,1.9-1.6,1.8Z" transform="translate(-40.7 -0.1)"/>
      <path class="cls-18" d="M715,45.5l1.3.8c-.8,1.9-3.4,1.1-4.8,2a1.5,1.5,0,0,1-2.5-1.2Z" transform="translate(-40.7 -0.1)"/>
      <path class="cls-18" d="M305.1,45.5l1.3.8c-.7,2.1-3.3,1.3-4.9,2s-2.3.1-2.5-1.2Z" transform="translate(-40.7 -0.1)"/>
      <path class="cls-19" d="M286.8,51.3a5.9,5.9,0,0,0,.2,1.3c-1.4,1.3-3.1,1.3-4.9.7C283.2,51.9,284.9,51.6,286.8,51.3Z" transform="translate(-40.7 -0.1)"/>
      <path class="cls-20" d="M709,47.1c.5.8,1.6.7,2.5.8s1.3,0,1.1.7c-1.9,0-3.6,1.7-5.6.4a2,2,0,0,0,1.6-1.8Z" transform="translate(-40.7 -0.1)"/>
      <path class="cls-20" d="M299,47.1c.6.8,1.7.7,2.6.8s1.3,0,1.1.7c-1.9.1-3.7,1.7-5.7.4a2,2,0,0,0,1.6-1.8Z" transform="translate(-40.7 -0.1)"/>
      <path class="cls-21" d="M316.1,45.4a9.7,9.7,0,0,1,4.7-1.2c1.7.5,3.1-.3,4.6-.6s3.1.5,4.7.8C325.4,45.2,320.9,46.5,316.1,45.4Z" transform="translate(-40.7 -0.1)"/>
      <path class="cls-22" d="M302.7,48.6l-1.1-.7,4.8-1.6h2c.5.2,1.2.3,1.3.9C307.5,48.2,305.1,48.3,302.7,48.6Z" transform="translate(-40.7 -0.1)"/>
      <path class="cls-23" d="M309.7,47.2l-1.3-.9,5.6-.9C313.7,47.7,311.3,46.8,309.7,47.2Z" transform="translate(-40.7 -0.1)"/>
      <path class="cls-21" d="M726,45.4a11.5,11.5,0,0,1,4.8-1.3c1.6.6,3-.2,4.5-.5s3.1.5,4.6.8C735.3,45.1,730.8,46.6,726,45.4Z" transform="translate(-40.7 -0.1)"/>
      <path class="cls-22" d="M712.6,48.6l-1.1-.7,4.8-1.6h2.1c.4.2,1.1.3,1.2.8C717.5,48.3,714.9,48.1,712.6,48.6Z" transform="translate(-40.7 -0.1)"/>
      <path class="cls-23" d="M719.6,47.1l-1.2-.8,5.5-.9C723.5,47.6,721.2,46.8,719.6,47.1Z" transform="translate(-40.7 -0.1)"/>
      <path id="mainscreen" d="M567.9,545H238.7c-17.2,0-24.7-5.4-24.7-18V168.5c0-11.9,7.8-17.5,23.9-17.5H897.7c16.8,0,24.3,5.5,24.3,17.8V527.2c0,12.2-7.5,17.8-24.1,17.8Z" transform="translate(-40.7 -0.1)"/>
    </g>
    <g>
      <path class="cls-24" d="M391,589.5H377v-14h-7v14H356V558h3.5v-3.5h28V558H391Zm-14-21v-7h-7v7Z" transform="translate(-40.7 -0.1)"/>
      <path class="cls-24" d="M441.3,586h-3.5v3.5H406.3v-7h21v-7H409.8V572h-3.5V558h3.5v-3.5h31.5v7h-21v7h17.5V572h3.5Z" transform="translate(-40.7 -0.1)"/>
      <path class="cls-24" d="M491.7,561.5H481.2v28h-14v-28H456.7v-7h35Z" transform="translate(-40.7 -0.1)"/>
      <path class="cls-24" d="M542.1,589.5H510.6V586h-3.5V558h3.5v-3.5h31.5v7h-21v7h10.5v7H521.1v7h21Z" transform="translate(-40.7 -0.1)"/>
      <path class="cls-24" d="M592.5,589.5h-14v-14h-7v14h-14v-35H589V558h3.5v10.5H589v7h3.5Zm-14-21v-7h-7v7Z" transform="translate(-40.7 -0.1)"/>
      <path class="cls-24" d="M642.9,586h-3.5v3.5h-28V586h-3.5V558h3.5v-3.5h28V558h3.5Zm-14-3.5v-21h-7v21Z" transform="translate(-40.7 -0.1)"/>
      <path class="cls-24" d="M672.3,589.5h-14v-35h14Z" transform="translate(-40.7 -0.1)"/>
      <path class="cls-24" d="M722.7,586h-3.5v3.5H687.7v-35h31.5V558h3.5Zm-14-3.5v-21h-7v21Z" transform="translate(-40.7 -0.1)"/>
      <path class="cls-24" d="M773.1,586h-3.5v3.5H738.1v-7h21v-7H741.6V572h-3.5V558h3.5v-3.5h31.5v7h-21v7h17.5V572h3.5Z" transform="translate(-40.7 -0.1)"/>
    </g>
  </g>
  <g id="joystick">
    <path id="joystick_red" class="cls-25" d="M487.6,618.6c2.3,9.4-1.9,16.5-12.6,21a15.1,15.1,0,0,1-16.8-.1c-10.8-4.4-14-11.8-12.5-20.9a27.6,27.6,0,0,1,9.3-9.9c8.3-3.2,16.5-3.3,24.6.7C484.8,610.8,487.3,613.7,487.6,618.6Z" transform="translate(-40.7 -0.1)"/>
    <path id="joystick_arm" d="M471.4,658.2c1.7-6.2,2.4-12.4,3.6-18.6a31.9,31.9,0,0,1-16.8-.1c.9,6.1,1.7,12.2,2.9,18.2a5.8,5.8,0,0,1,0,3.5l11,.8C471.1,661.4,470.8,660.3,471.4,658.2Z" transform="translate(-40.7 -0.1)"/>
    <path id="joystick_base" d="M493.4,667.1a38.9,38.9,0,0,0-17-4.3c-2-.1-3.4-.2-4.3-.8l-11-.8-.3.4c-.6.8-1.9,1.3-4.2,1.4a39.7,39.7,0,0,0-14.8,4c-6.5,3.3-6.8,7.9-.6,11.6a32.5,32.5,0,0,0,5.4,2.3c10.3,3.3,20.9,3.3,31.6,2.2a43.4,43.4,0,0,0,14.9-4C500.2,675.5,500.4,670.8,493.4,667.1Z" transform="translate(-40.7 -0.1)"/>
    <g id="blue">
      <path id="button" class="cls-26" d="M580,651a31.6,31.6,0,0,1,27.2,0c3.6,3.8,3.2,6.6-1.6,8.7a28,28,0,0,1-24,0C576.7,657.6,576.4,654.8,580,651Z" transform="translate(-40.7 -0.1)"/>
      <path id="blue_outline" class="cls-27" d="M580,651c-2.2,5.3-1.5,6.6,4.6,8.6a27.7,27.7,0,0,0,18,0c6.1-2,6.8-3.3,4.6-8.6,6.3,3,6.6,7.3.7,10.4s-21.7,3.7-28.6,0S573.7,654,580,651Z" transform="translate(-40.7 -0.1)"/>
    </g>
    <g id="green">
      <path id="green-2" data-name="green" class="cls-28" d="M630.8,647.5c10-4,19.8-4.4,29.4.8,2.4,3.6.5,6.1-3.3,7.9-7.6,3.6-15.7,3.5-23.5.4C628.1,654.6,627.6,651.7,630.8,647.5Z" transform="translate(-40.7 -0.1)"/>
      <path id="green_outline" class="cls-29" d="M630.8,647.5c-1.8,5.5-.4,7.5,6.4,9.3a40.5,40.5,0,0,0,13.9.3c6.2-.7,9.1-3.9,9.1-8.8,4.9,4.2,4.1,7.9-2.8,10.5a36.1,36.1,0,0,1-25.5-.3C624.8,655.6,624.5,651.5,630.8,647.5Z" transform="translate(-40.7 -0.1)"/>
    </g>
    <g id="yellow">
      <path id="yellow-2" data-name="yellow" class="cls-30" d="M681.6,648.3c7.1-5.1,19.3-5.2,29.4-.3,2.1,4.7,1.4,6.9-3.9,8.9a30.1,30.1,0,0,1-23.2-.7C679.1,654.1,678.6,651.6,681.6,648.3Z" transform="translate(-40.7 -0.1)"/>
      <path id="yellow_outline" class="cls-31" d="M681.6,648.3c-2.3,3.6-.1,5.8,3.6,7.3,6.6,2.6,13.5,2.5,20.3.7,4.9-1.4,6.4-4.4,5.5-8.2,4.9,3.8,4.9,7.3-.6,9.7a33.6,33.6,0,0,1-28.4.1C676,655.2,676.1,651.2,681.6,648.3Z" transform="translate(-40.7 -0.1)"/>
    </g>
    <g id="red">
      <path id="button-2" data-name="button" class="cls-32" d="M543.9,667.2c9.5-5.3,23.4-5.2,30.5.2,2.7,3.4.3,5.6-2.9,7.5-5.9,3.5-18.1,3.7-24.1.4C543.9,673.3,541.7,670.8,543.9,667.2Z" transform="translate(-40.7 -0.1)"/>
      <path id="red_outline" class="cls-33" d="M543.9,667.2c-.2,4.7,2.7,7.4,8.3,8.5a33,33,0,0,0,15.3-.4c4.7-1.3,7.7-3.6,6.9-7.9,4.4,2.8,4.6,6,.5,8.7-6.9,4.4-23.2,4.6-30.3.3C539.9,673.5,539.7,670.9,543.9,667.2Z" transform="translate(-40.7 -0.1)"/>
    </g>
  </g>
</svg>
